<svg width="20" height="20" viewBox="0 0 20 20" fill="none" xmlns="http://www.w3.org/2000/svg">
<path d="M13.75 7.29172C13.9083 7.29172 14.0667 7.35005 14.1917 7.47505C14.4333 7.71672 14.4333 8.11671 14.1917 8.35838L11.525 11.025C11.3917 11.1584 11.2167 11.225 11.025 11.2084C10.8417 11.1917 10.675 11.0917 10.5667 10.9334L9.65834 9.56671L6.70001 12.525C6.45834 12.7667 6.05834 12.7667 5.81667 12.525C5.57501 12.2834 5.57501 11.8834 5.81667 11.6417L9.31667 8.14172C9.45001 8.00838 9.62501 7.94171 9.81667 7.95838C10 7.97505 10.1667 8.07505 10.275 8.23338L11.1833 9.60005L13.3083 7.47505C13.4333 7.35005 13.5917 7.29172 13.75 7.29172Z" fill="#FE5C73"/>
<path d="M6.24996 9.79171C6.59163 9.79171 6.87496 10.075 6.87496 10.4167L6.87496 11.4584L7.91663 11.4584C8.25829 11.4584 8.54163 11.7417 8.54163 12.0834C8.54163 12.425 8.25829 12.7084 7.91663 12.7084L6.24996 12.7084C5.90829 12.7084 5.62496 12.425 5.62496 12.0834L5.62496 10.4167C5.62496 10.075 5.90829 9.79171 6.24996 9.79171Z" fill="#FE5C73"/>
<path d="M7.50004 1.04171L12.5 1.04171C17.025 1.04171 18.9584 2.97504 18.9584 7.50004L18.9584 12.5C18.9584 17.025 17.025 18.9584 12.5 18.9584L7.50004 18.9584C2.97504 18.9584 1.04171 17.025 1.04171 12.5L1.04171 7.50004C1.04171 2.97504 2.97504 1.0417 7.50004 1.04171ZM12.5 17.7084C16.3417 17.7084 17.7084 16.3417 17.7084 12.5L17.7084 7.50004C17.7084 3.65837 16.3417 2.29171 12.5 2.29171L7.50004 2.29171C3.65837 2.2917 2.29171 3.65837 2.29171 7.50004L2.29171 12.5C2.29171 16.3417 3.65837 17.7084 7.50004 17.7084L12.5 17.7084Z" fill="#FE5C73"/>
</svg>
