<svg width="20" height="20" viewBox="0 0 20 20" fill="none" xmlns="http://www.w3.org/2000/svg">
<path d="M6.24999 12.7083C6.09166 12.7083 5.93333 12.65 5.80833 12.525C5.56666 12.2833 5.56666 11.8833 5.80833 11.6416L8.47499 8.97495C8.60833 8.84162 8.78333 8.77495 8.97499 8.79162C9.15833 8.80828 9.32499 8.90828 9.43333 9.06662L10.3417 10.4333L13.3 7.47495C13.5417 7.23328 13.9417 7.23328 14.1833 7.47495C14.425 7.71662 14.425 8.11662 14.1833 8.35828L10.6833 11.8583C10.55 11.9916 10.375 12.0583 10.1833 12.0416C9.99999 12.025 9.83333 11.925 9.72499 11.7666L8.81666 10.4L6.69166 12.525C6.56666 12.65 6.40833 12.7083 6.24999 12.7083Z" fill="#15803D"/>
<path d="M13.75 10.2083C13.4084 10.2083 13.125 9.92496 13.125 9.58329V8.54163H12.0834C11.7417 8.54163 11.4584 8.25829 11.4584 7.91663C11.4584 7.57496 11.7417 7.29163 12.0834 7.29163H13.75C14.0917 7.29163 14.375 7.57496 14.375 7.91663V9.58329C14.375 9.92496 14.0917 10.2083 13.75 10.2083Z" fill="#15803D"/>
<path d="M12.5 18.9583H7.49996C2.97496 18.9583 1.04163 17.025 1.04163 12.5V7.49996C1.04163 2.97496 2.97496 1.04163 7.49996 1.04163H12.5C17.025 1.04163 18.9583 2.97496 18.9583 7.49996V12.5C18.9583 17.025 17.025 18.9583 12.5 18.9583ZM7.49996 2.29163C3.65829 2.29163 2.29163 3.65829 2.29163 7.49996V12.5C2.29163 16.3416 3.65829 17.7083 7.49996 17.7083H12.5C16.3416 17.7083 17.7083 16.3416 17.7083 12.5V7.49996C17.7083 3.65829 16.3416 2.29163 12.5 2.29163H7.49996Z" fill="#15803D"/>
</svg>
