<svg width="13" height="14" viewBox="0 0 13 14" fill="none" xmlns="http://www.w3.org/2000/svg">
<path d="M4.85263 1.63048V2.67132H7.97513V1.63048H9.01597V2.67132H11.0976C11.2422 2.67132 11.3651 2.72191 11.4663 2.82311C11.5675 2.9243 11.6181 3.04717 11.6181 3.19174V11.5184C11.6181 11.663 11.5675 11.7858 11.4663 11.887C11.3651 11.9882 11.2422 12.0388 11.0976 12.0388H1.73013C1.58557 12.0388 1.4627 11.9882 1.36151 11.887C1.26031 11.7858 1.20972 11.663 1.20972 11.5184V3.19174C1.20972 3.04717 1.26031 2.9243 1.36151 2.82311C1.4627 2.72191 1.58557 2.67132 1.73013 2.67132H3.8118V1.63048H4.85263ZM10.5772 6.83465H2.25055V10.998H10.5772V6.83465ZM4.33222 7.87548V8.91632H3.29138V7.87548H4.33222ZM6.9343 7.87548V8.91632H5.89347V7.87548H6.9343ZM9.53638 7.87548V8.91632H8.49555V7.87548H9.53638ZM3.8118 3.71215H2.25055V5.79382H10.5772V3.71215H9.01597V4.75299H7.97513V3.71215H4.85263V4.75299H3.8118V3.71215Z" fill="white"/>
</svg>
