<svg width="36" height="36" viewBox="0 0 36 36" fill="none" xmlns="http://www.w3.org/2000/svg">
<path fill-rule="evenodd" clip-rule="evenodd" d="M18 36C27.9411 36 36 27.9411 36 18C36 8.05887 27.9411 0 18 0C8.05887 0 0 8.05887 0 18C0 27.9411 8.05887 36 18 36Z" fill="#FF4B55"/>
<path d="M19.8125 23.5625C19.8125 24.1641 19.5938 24.6745 19.1562 25.0938C18.737 25.5312 18.2266 25.75 17.625 25.75C17.0234 25.75 16.5039 25.5312 16.0664 25.0938C15.6471 24.6745 15.4375 24.1641 15.4375 23.5625C15.4375 22.9609 15.6471 22.4505 16.0664 22.0312C16.5039 21.5938 17.0234 21.375 17.625 21.375C18.2266 21.375 18.737 21.5938 19.1562 22.0312C19.5938 22.4505 19.8125 22.9609 19.8125 23.5625ZM15.6836 12.4336L16.0664 19.8711C16.0664 20.0534 16.1302 20.2083 16.2578 20.3359C16.3854 20.4453 16.5404 20.5 16.7227 20.5H18.5273C18.7096 20.5 18.8646 20.4453 18.9922 20.3359C19.1198 20.2083 19.1836 20.0534 19.1836 19.8711L19.5664 12.4336C19.5664 12.2513 19.5026 12.0964 19.375 11.9688C19.2474 11.8229 19.0924 11.75 18.9102 11.75H16.3398C16.1576 11.75 16.0026 11.8229 15.875 11.9688C15.7474 12.0964 15.6836 12.2513 15.6836 12.4336Z" fill="white"/>
</svg>
