<svg width="254" height="41" viewBox="0 0 254 41" fill="none" xmlns="http://www.w3.org/2000/svg">
<path d="M0 33.3167C11.6081 33.2848 11.6081 9.70515 29.4555 9.70515C46.4931 9.70515 46.4931 27.6466 64.5194 27.6466C83.2346 27.6466 88.2914 1 102.518 1C110.053 1 110.053 9.70515 124.167 9.70515C141.263 7.48439 139.373 19.3857 154.138 20.2658C168.045 19.3857 169.865 5.30488 183.797 5.30488C198.705 5.30488 205.817 40 222.508 40C227.885 40 232.595 35.9284 236.478 30.7182C242.813 22.2156 246.985 11.529 248.002 9.70515C250.454 5.30488 254 5.30488 254 5.30488" stroke="#F4F4F4" stroke-width="0.7"/>
</svg>
