<svg width="133" height="27" viewBox="0 0 133 27" fill="none" xmlns="http://www.w3.org/2000/svg">
<path d="M0.888672 17.3125C0.888672 17.2995 0.878906 17.1855 0.859375 16.9707C0.839844 16.7559 0.817057 16.4694 0.791016 16.1113C0.764974 15.7533 0.732422 15.3431 0.693359 14.8809C0.660807 14.4121 0.625 13.9238 0.585938 13.416C0.553385 12.9017 0.517578 12.3809 0.478516 11.8535C0.445964 11.3197 0.416667 10.8118 0.390625 10.3301C0.364583 9.8418 0.341797 9.39583 0.322266 8.99219C0.309245 8.58203 0.302734 8.24349 0.302734 7.97656C0.302734 7.57943 0.351562 7.27344 0.449219 7.05859C0.553385 6.84375 0.677083 6.6875 0.820312 6.58984C0.963542 6.48568 1.11328 6.42708 1.26953 6.41406C1.42578 6.39453 1.5625 6.38477 1.67969 6.38477C1.92057 6.38477 2.11589 6.41732 2.26562 6.48242C2.42188 6.54753 2.54232 6.64518 2.62695 6.77539C2.7181 6.89909 2.77995 7.05208 2.8125 7.23438C2.84505 7.41667 2.86133 7.62174 2.86133 7.84961L3.29102 19.4609L9.64844 7.25391C9.69401 7.09766 9.77214 6.94792 9.88281 6.80469C9.99349 6.66146 10.127 6.53776 10.2832 6.43359C10.4395 6.32292 10.612 6.23828 10.8008 6.17969C10.9896 6.11458 11.1849 6.08203 11.3867 6.08203C11.6211 6.08203 11.8034 6.1862 11.9336 6.39453C12.0703 6.59635 12.1387 6.86328 12.1387 7.19531C12.1387 7.42969 12.0768 7.74219 11.9531 8.13281C11.8294 8.52344 11.6634 8.96289 11.4551 9.45117C11.2533 9.93945 11.0156 10.4635 10.7422 11.0234C10.4688 11.5833 10.1823 12.153 9.88281 12.7324C9.58984 13.3118 9.29036 13.888 8.98438 14.4609C8.6849 15.0273 8.39844 15.5612 8.125 16.0625C8.04688 16.2122 7.98828 16.3685 7.94922 16.5312C7.91016 16.694 7.89062 16.8568 7.89062 17.0195C7.89062 17.2669 7.93945 17.5078 8.03711 17.7422C8.13477 17.9766 8.28451 18.1849 8.48633 18.3672C8.69466 18.5495 8.95508 18.696 9.26758 18.8066C9.58659 18.9108 9.96419 18.9629 10.4004 18.9629C10.5046 18.9629 10.6185 18.9401 10.7422 18.8945C10.8724 18.849 11.0059 18.7904 11.1426 18.7188C11.2793 18.6406 11.4193 18.5527 11.5625 18.4551C11.7057 18.3574 11.8457 18.2598 11.9824 18.1621C12.2949 17.9277 12.6172 17.6608 12.9492 17.3613L12.7246 19.3828C12.1842 19.8125 11.6439 20.1576 11.1035 20.418C10.5697 20.6719 10.0684 20.7988 9.59961 20.7988C9.1569 20.7988 8.76302 20.7402 8.41797 20.623C8.07943 20.4993 7.78971 20.3268 7.54883 20.1055C7.30794 19.8841 7.12565 19.6172 7.00195 19.3047C6.87826 18.9922 6.81641 18.6439 6.81641 18.2598C6.81641 18.0645 6.83594 17.8529 6.875 17.625C6.49089 18.5234 6.12956 19.2754 5.79102 19.8809C5.45898 20.4798 5.13672 20.9616 4.82422 21.3262C4.51172 21.6842 4.20898 21.9382 3.91602 22.0879C3.62305 22.2441 3.33333 22.3223 3.04688 22.3223C2.65625 22.3223 2.33724 22.2572 2.08984 22.127C1.84245 21.9967 1.64388 21.8177 1.49414 21.5898C1.35091 21.3555 1.24349 21.0788 1.17188 20.7598C1.10677 20.4408 1.05794 20.0957 1.02539 19.7246C0.999349 19.3535 0.979818 18.9629 0.966797 18.5527C0.953776 18.1426 0.927734 17.7292 0.888672 17.3125ZM17.7734 14.4707C17.9622 14.8483 18.1022 15.2487 18.1934 15.6719C18.291 16.0885 18.3398 16.5605 18.3398 17.0879C18.3398 17.472 18.2975 17.8594 18.2129 18.25C18.1283 18.6406 18.0046 19.0182 17.8418 19.3828C17.6855 19.7474 17.4902 20.0892 17.2559 20.4082C17.028 20.7272 16.7643 21.0039 16.4648 21.2383C16.1719 21.4727 15.8496 21.6582 15.498 21.7949C15.1465 21.9316 14.7721 22 14.375 22C13.8021 22 13.3105 21.8763 12.9004 21.6289C12.4967 21.375 12.1647 21.0462 11.9043 20.6426C11.6439 20.2389 11.4518 19.7832 11.3281 19.2754C11.2109 18.7676 11.1523 18.2533 11.1523 17.7324C11.1523 16.873 11.2598 16.1341 11.4746 15.5156C11.6895 14.8906 11.9954 14.3503 12.3926 13.8945C12.7962 13.4323 13.2878 13.071 13.8672 12.8105C14.4466 12.5436 15.0977 12.4102 15.8203 12.4102C16.4388 12.4102 17.0182 12.5078 17.5586 12.7031C18.099 12.8919 18.6035 13.1491 19.0723 13.4746C19.5475 13.7936 19.987 14.1973 20.3906 14.6855C20.8008 15.1738 21.1816 15.6393 21.5332 16.082L21.3477 17.459C21.1719 17.2246 20.9342 16.9707 20.6348 16.6973C20.3353 16.4238 20.0163 16.1211 19.6777 15.7891C19.3457 15.457 19.0169 15.1771 18.6914 14.9492C18.3659 14.7148 18.0859 14.5195 17.8516 14.3633L17.7734 14.4707ZM14.7559 20.125C14.9772 20.125 15.1921 20.0143 15.4004 19.793C15.6087 19.5651 15.791 19.2819 15.9473 18.9434C16.1035 18.5983 16.2272 18.1849 16.3184 17.7031C16.416 17.2148 16.4648 16.7819 16.4648 16.4043C16.4648 16.1048 16.4421 15.8281 16.3965 15.5742C16.3509 15.3138 16.2826 15.0892 16.1914 14.9004C16.1003 14.7116 15.9831 14.5618 15.8398 14.4512C15.6966 14.3405 15.5241 14.2852 15.3223 14.2852C15.0553 14.2852 14.8014 14.3991 14.5605 14.627C14.3197 14.8548 14.1081 15.1478 13.9258 15.5059C13.7435 15.8574 13.6003 16.248 13.4961 16.6777C13.3919 17.1074 13.3398 17.5924 13.3398 18.1328C13.3398 18.4062 13.3659 18.6634 13.418 18.9043C13.4701 19.1452 13.5514 19.3568 13.6621 19.5391C13.7728 19.7148 13.9193 19.8581 14.1016 19.9688C14.2839 20.0729 14.502 20.125 14.7559 20.125ZM20.1953 19.959C20.1953 19.6725 20.2116 19.3405 20.2441 18.9629C20.2767 18.5788 20.319 18.1751 20.3711 17.752C20.4297 17.3288 20.4948 16.8991 20.5664 16.4629C20.6445 16.0202 20.7422 15.5514 20.8594 15.0566C20.9766 14.5553 21.0775 14.1387 21.1621 13.8066C21.2467 13.4746 21.3314 13.2012 21.416 12.9863C21.4681 12.8431 21.5202 12.7292 21.5723 12.6445C21.6243 12.5599 21.6829 12.4948 21.748 12.4492C21.8197 12.3971 21.9043 12.3646 22.002 12.3516C22.1061 12.332 22.2331 12.3223 22.3828 12.3223C22.5521 12.3223 22.6823 12.332 22.7734 12.3516C22.8711 12.3646 22.9427 12.4036 22.9883 12.4688C23.0339 12.5273 23.0599 12.6152 23.0664 12.7324C23.0794 12.8496 23.0859 13.0091 23.0859 13.2109C23.0859 13.4518 23.0697 13.7936 23.0371 14.2363C23.0046 14.679 22.9948 15.0664 23.0078 15.3984H23.1152C23.2454 15.138 23.4082 14.7962 23.6035 14.373C23.7988 13.9499 24.0039 13.5983 24.2188 13.3184C24.4336 13.0384 24.6777 12.804 24.9512 12.6152C25.2246 12.4199 25.5404 12.3223 25.8984 12.3223C26.0221 12.3223 26.1426 12.3451 26.2598 12.3906C26.377 12.4297 26.4779 12.4883 26.5625 12.5664C26.6536 12.6445 26.7253 12.7422 26.7773 12.8594C26.8294 12.9701 26.8555 13.097 26.8555 13.2402C26.8555 13.3509 26.8392 13.5072 26.8066 13.709C26.7741 13.9043 26.722 14.1615 26.6504 14.4805C26.5788 14.7995 26.5267 15.0632 26.4941 15.2715C26.4616 15.4733 26.4453 15.6426 26.4453 15.7793C26.4453 16.0137 26.4681 16.209 26.5137 16.3652C26.5592 16.5215 26.6178 16.6484 26.6895 16.7461C26.7676 16.8372 26.8522 16.9023 26.9434 16.9414C27.041 16.9805 27.1419 17 27.2461 17C27.5391 17 27.8418 16.9349 28.1543 16.8047C28.4668 16.6745 28.7533 16.528 29.0137 16.3652C29.3197 16.1764 29.6191 15.9616 29.9121 15.7207L29.7656 18.0059C29.5964 18.1165 29.4043 18.2402 29.1895 18.377C28.9746 18.5137 28.7435 18.6439 28.4961 18.7676C28.2552 18.8848 28.0013 18.9857 27.7344 19.0703C27.474 19.1484 27.207 19.1875 26.9336 19.1875C26.4453 19.1875 26.0514 19.0898 25.752 18.8945C25.4525 18.6927 25.2148 18.4323 25.0391 18.1133C24.8633 17.7878 24.7331 17.4264 24.6484 17.0293C24.5638 16.6257 24.4954 16.2188 24.4434 15.8086H24.2871L22.5391 20.6816C22.4479 20.9355 22.36 21.1471 22.2754 21.3164C22.1973 21.4792 22.1159 21.6126 22.0312 21.7168C21.9466 21.821 21.8555 21.8958 21.7578 21.9414C21.6602 21.9805 21.5527 22 21.4355 22C21.1686 22 20.9538 21.9447 20.791 21.834C20.6283 21.7168 20.5013 21.5638 20.4102 21.375C20.3255 21.1797 20.2669 20.9616 20.2344 20.7207C20.2083 20.4733 20.1953 20.2194 20.1953 19.959ZM34.6094 14.4707C34.7982 14.8483 34.9382 15.2487 35.0293 15.6719C35.127 16.0885 35.1758 16.5605 35.1758 17.0879C35.1758 17.472 35.1335 17.8594 35.0488 18.25C34.9642 18.6406 34.8405 19.0182 34.6777 19.3828C34.5215 19.7474 34.3262 20.0892 34.0918 20.4082C33.8639 20.7272 33.6003 21.0039 33.3008 21.2383C33.0078 21.4727 32.6855 21.6582 32.334 21.7949C31.9824 21.9316 31.6081 22 31.2109 22C30.638 22 30.1465 21.8763 29.7363 21.6289C29.3327 21.375 29.0007 21.0462 28.7402 20.6426C28.4798 20.2389 28.2878 19.7832 28.1641 19.2754C28.0469 18.7676 27.9883 18.2533 27.9883 17.7324C27.9883 16.873 28.0957 16.1341 28.3105 15.5156C28.5254 14.8906 28.8314 14.3503 29.2285 13.8945C29.6322 13.4323 30.1237 13.071 30.7031 12.8105C31.2826 12.5436 31.9336 12.4102 32.6562 12.4102C33.2747 12.4102 33.8542 12.5078 34.3945 12.7031C34.9349 12.8919 35.4395 13.1491 35.9082 13.4746C36.3835 13.7936 36.8229 14.1973 37.2266 14.6855C37.6367 15.1738 38.0176 15.6393 38.3691 16.082L38.1836 17.459C38.0078 17.2246 37.7702 16.9707 37.4707 16.6973C37.1712 16.4238 36.8522 16.1211 36.5137 15.7891C36.1816 15.457 35.8529 15.1771 35.5273 14.9492C35.2018 14.7148 34.9219 14.5195 34.6875 14.3633L34.6094 14.4707ZM31.5918 20.125C31.8132 20.125 32.028 20.0143 32.2363 19.793C32.4447 19.5651 32.627 19.2819 32.7832 18.9434C32.9395 18.5983 33.0632 18.1849 33.1543 17.7031C33.252 17.2148 33.3008 16.7819 33.3008 16.4043C33.3008 16.1048 33.278 15.8281 33.2324 15.5742C33.1868 15.3138 33.1185 15.0892 33.0273 14.9004C32.9362 14.7116 32.819 14.5618 32.6758 14.4512C32.5326 14.3405 32.36 14.2852 32.1582 14.2852C31.8913 14.2852 31.6374 14.3991 31.3965 14.627C31.1556 14.8548 30.944 15.1478 30.7617 15.5059C30.5794 15.8574 30.4362 16.248 30.332 16.6777C30.2279 17.1074 30.1758 17.5924 30.1758 18.1328C30.1758 18.4062 30.2018 18.6634 30.2539 18.9043C30.306 19.1452 30.3874 19.3568 30.498 19.5391C30.6087 19.7148 30.7552 19.8581 30.9375 19.9688C31.1198 20.0729 31.3379 20.125 31.5918 20.125ZM37.0312 19.959C37.0312 19.5293 37.0573 19.0345 37.1094 18.4746C37.1615 17.9082 37.2266 17.2897 37.3047 16.6191C37.3828 15.9421 37.4707 15.3333 37.5684 14.793C37.666 14.2526 37.7604 13.7904 37.8516 13.4062C37.9232 13.1068 38.0599 12.8561 38.2617 12.6543C38.4701 12.4525 38.75 12.3516 39.1016 12.3516C39.4531 12.3516 39.6973 12.459 39.834 12.6738C39.9707 12.8887 40.0391 13.1751 40.0391 13.5332C40.0391 13.6309 40.0293 13.7643 40.0098 13.9336C39.9902 14.0964 39.9642 14.2786 39.9316 14.4805C39.9056 14.6758 39.8763 14.8809 39.8438 15.0957C39.8112 15.304 39.7786 15.5449 39.7461 15.8184C39.7201 16.0853 39.6973 16.2871 39.6777 16.4238C39.6582 16.554 39.6484 16.6419 39.6484 16.6875H39.8438C39.8828 16.6159 39.9447 16.502 40.0293 16.3457C40.1139 16.1829 40.2116 15.9518 40.3223 15.6523C40.4329 15.3529 40.5501 15.0892 40.6738 14.8613C40.804 14.627 40.9245 14.4056 41.0352 14.1973C41.1458 13.9824 41.2467 13.7936 41.3379 13.6309C41.429 13.4681 41.4974 13.3477 41.543 13.2695C41.7513 12.918 41.9889 12.6771 42.2559 12.5469C42.5228 12.4167 42.819 12.3516 43.1445 12.3516C43.4701 12.3516 43.7272 12.4883 43.916 12.7617C44.1113 13.0352 44.209 13.4128 44.209 13.8945C44.209 13.9661 44.1927 14.0866 44.1602 14.2559C44.1341 14.4251 44.0983 14.627 44.0527 14.8613C44.0072 15.0957 43.9551 15.3984 43.8965 15.7695C43.8444 16.1406 43.7956 16.4727 43.75 16.7656C43.7044 17.0586 43.6654 17.3483 43.6328 17.6348C43.6068 17.9212 43.5938 18.1849 43.5938 18.4258C43.5938 18.8294 43.6426 19.1615 43.7402 19.4219C43.8444 19.6823 44.0039 19.8125 44.2188 19.8125C44.2969 19.8125 44.4076 19.7832 44.5508 19.7246C44.7656 19.6465 44.9023 19.5781 44.9609 19.5195C45.2474 19.2982 45.3971 19.1908 45.4102 19.1973C45.4297 19.2038 45.6478 19.0736 46.0645 18.8066C46.5853 18.4746 47.207 18.0677 47.9297 17.5859L47.9199 19.7734L47.4316 20.1445C47.3926 20.1771 47.0866 20.3464 46.5137 20.6523C45.6868 21.0951 45.1693 21.362 44.9609 21.4531C44.4531 21.681 44.1374 21.8112 44.0137 21.8438C43.6882 21.9479 43.3464 22 42.9883 22C42.6302 22 42.3275 21.7428 42.0801 21.2285C41.8392 20.7077 41.7188 19.9492 41.7188 18.9531C41.7188 18.5625 41.7448 18.1426 41.7969 17.6934C41.849 17.2376 41.9141 16.7493 41.9922 16.2285H41.8359L39.2773 21.3066C39.1406 21.5801 38.9941 21.7624 38.8379 21.8535C38.6751 21.9512 38.4863 22 38.2715 22C38.0046 22 37.7897 21.9447 37.627 21.834C37.4642 21.7168 37.3372 21.5638 37.2461 21.375C37.1615 21.1797 37.1029 20.9616 37.0703 20.7207C37.0443 20.4733 37.0312 20.2194 37.0312 19.959ZM49.6387 16.541C49.873 16.2415 50.1302 15.9128 50.4102 15.5547C50.6901 15.1966 50.9635 14.8548 51.2305 14.5293C51.5039 14.2038 51.7773 13.8652 52.0508 13.5137C52.3242 13.1621 52.526 12.9408 52.6562 12.8496C52.8581 12.7064 53.1055 12.5859 53.3984 12.4883C53.6914 12.3841 54.0169 12.332 54.375 12.332C54.5573 12.332 54.7298 12.3743 54.8926 12.459C55.0618 12.5436 55.2083 12.6641 55.332 12.8203C55.4557 12.9766 55.5534 13.1654 55.625 13.3867C55.6966 13.6081 55.7324 13.8555 55.7324 14.1289C55.7324 14.3958 55.6413 14.7148 55.459 15.0859C55.2832 15.4505 55.0977 15.7695 54.9023 16.043C54.707 16.3164 54.4954 16.5898 54.2676 16.8633C54.0397 17.1367 53.8281 17.4134 53.6328 17.6934C53.4375 17.9668 53.2747 18.2402 53.1445 18.5137C53.0143 18.7871 52.9492 19.0605 52.9492 19.334C52.9492 19.5684 53.0046 19.7376 53.1152 19.8418C53.2324 19.9395 53.4115 19.9883 53.6523 19.9883C53.7826 19.9883 53.9225 19.946 54.0723 19.8613C54.2285 19.7702 54.388 19.653 54.5508 19.5098C54.7135 19.3665 54.8763 19.207 55.0391 19.0312C55.2083 18.8555 55.3678 18.6764 55.5176 18.4941C55.6738 18.3118 55.8203 18.1393 55.957 17.9766C56.0938 17.8073 56.2174 17.6641 56.3281 17.5469L56.9141 19.9395C56.7122 20.2324 56.4551 20.5059 56.1426 20.7598C55.8366 21.0072 55.5013 21.2253 55.1367 21.4141C54.7786 21.5964 54.4043 21.7396 54.0137 21.8438C53.6296 21.9479 53.2585 22 52.9004 22C52.4316 22 52.0475 21.9447 51.748 21.834C51.4551 21.7168 51.224 21.5638 51.0547 21.375C50.8854 21.1862 50.7682 20.9746 50.7031 20.7402C50.6445 20.4993 50.6152 20.252 50.6152 19.998C50.6152 19.8483 50.6315 19.666 50.6641 19.4512C50.7031 19.2298 50.7715 18.9824 50.8691 18.709C50.9733 18.4355 51.1165 18.1361 51.2988 17.8105C51.4811 17.4785 51.7188 17.1237 52.0117 16.7461C52.1289 16.6289 52.2363 16.5247 52.334 16.4336C52.4316 16.3359 52.5163 16.2513 52.5879 16.1797C52.6595 16.1016 52.7148 16.0299 52.7539 15.9648C52.793 15.8997 52.8125 15.8314 52.8125 15.7598C52.8125 15.623 52.7865 15.5124 52.7344 15.4277C52.6888 15.3431 52.6204 15.3008 52.5293 15.3008C52.4186 15.3008 52.2754 15.3724 52.0996 15.5156C51.9173 15.6654 51.7253 15.916 51.5234 16.2676L48.6523 21.3066C48.4961 21.5605 48.3398 21.7396 48.1836 21.8438C48.0273 21.9479 47.8451 22 47.6367 22C47.3568 22 47.1354 21.9414 46.9727 21.8242C46.8099 21.7005 46.6862 21.5378 46.6016 21.3359C46.5169 21.1276 46.4616 20.89 46.4355 20.623C46.416 20.3496 46.4062 20.0599 46.4062 19.7539C46.4062 19.3828 46.4193 18.8913 46.4453 18.2793C46.4714 17.6673 46.5104 16.9967 46.5625 16.2676C46.6146 15.5319 46.6829 14.7637 46.7676 13.9629C46.8587 13.1621 46.9661 12.3841 47.0898 11.6289C47.1354 11.362 47.194 11.0397 47.2656 10.6621C47.3372 10.278 47.4251 9.86784 47.5293 9.43164C47.64 8.99544 47.7669 8.54297 47.9102 8.07422C48.0599 7.59896 48.2292 7.13997 48.418 6.69727C48.6133 6.24805 48.8314 5.82161 49.0723 5.41797C49.3132 5.01432 49.5833 4.66276 49.8828 4.36328C50.1823 4.05729 50.5111 3.81641 50.8691 3.64062C51.2272 3.46484 51.6178 3.37695 52.041 3.37695C52.373 3.37695 52.6465 3.43229 52.8613 3.54297C53.0762 3.64714 53.2454 3.79688 53.3691 3.99219C53.4993 4.18099 53.5905 4.40885 53.6426 4.67578C53.6947 4.94271 53.7207 5.23242 53.7207 5.54492C53.7207 6.09831 53.6491 6.69401 53.5059 7.33203C53.3691 7.97005 53.1934 8.61133 52.9785 9.25586C52.7637 9.89388 52.5293 10.5156 52.2754 11.1211C52.0215 11.7266 51.7773 12.2734 51.543 12.7617C51.3086 13.25 51.1003 13.6634 50.918 14.002C50.7422 14.334 50.625 14.5521 50.5664 14.6562L49.4043 16.3945L49.6387 16.541ZM51.5527 5.57422C51.3444 5.57422 51.1654 5.63932 51.0156 5.76953C50.8659 5.89974 50.7227 6.08529 50.5859 6.32617C50.4557 6.56706 50.3223 6.86003 50.1855 7.20508C50.0553 7.55013 49.9056 7.93424 49.7363 8.35742C49.6322 8.72852 49.5345 9.11263 49.4434 9.50977C49.3587 9.9069 49.2806 10.304 49.209 10.7012C49.1374 11.0918 49.0723 11.4792 49.0137 11.8633C48.9616 12.2474 48.916 12.6087 48.877 12.9473C48.7793 13.748 48.7012 14.5358 48.6426 15.3105C48.7858 14.8809 48.9421 14.4154 49.1113 13.9141C49.2806 13.4062 49.4466 12.9082 49.6094 12.4199C49.7786 11.9251 49.9349 11.4596 50.0781 11.0234C50.2279 10.5807 50.3516 10.2064 50.4492 9.90039C50.4948 9.75716 50.5599 9.57812 50.6445 9.36328C50.7292 9.14844 50.8203 8.91732 50.918 8.66992C51.0156 8.42253 51.1133 8.16536 51.2109 7.89844C51.3086 7.63151 51.3965 7.37435 51.4746 7.12695C51.5592 6.87956 51.6276 6.64844 51.6797 6.43359C51.7318 6.21875 51.7578 6.03646 51.7578 5.88672C51.7578 5.67839 51.6895 5.57422 51.5527 5.57422ZM66.1914 19.6074C66.0417 19.8158 65.8398 20.0599 65.5859 20.3398C65.3385 20.6198 65.0586 20.8867 64.7461 21.1406C64.4336 21.3945 64.0983 21.6094 63.7402 21.7852C63.3822 21.9609 63.0241 22.0488 62.666 22.0488C62.2363 22.0488 61.8783 21.9121 61.5918 21.6387C61.3053 21.3587 61.0579 20.9551 60.8496 20.4277C60.6934 20.61 60.5013 20.7956 60.2734 20.9844C60.0456 21.1732 59.7949 21.3457 59.5215 21.502C59.2546 21.6517 58.9746 21.7754 58.6816 21.873C58.3887 21.9707 58.0957 22.0195 57.8027 22.0195C57.4902 22.0195 57.1842 21.9577 56.8848 21.834C56.5918 21.7038 56.3314 21.5215 56.1035 21.2871C55.8757 21.0462 55.6934 20.7565 55.5566 20.418C55.4199 20.0729 55.3516 19.6855 55.3516 19.2559C55.3516 18.7676 55.4199 18.2663 55.5566 17.752C55.6934 17.2376 55.9049 16.681 56.1914 16.082C56.4779 15.4831 56.7839 14.9655 57.1094 14.5293C57.4414 14.0931 57.8027 13.7122 58.1934 13.3867C58.584 13.0612 58.9941 12.804 59.4238 12.6152C59.86 12.4199 60.3027 12.3223 60.752 12.3223C60.9017 12.3223 61.0189 12.3516 61.1035 12.4102C61.1882 12.4688 61.2565 12.5371 61.3086 12.6152C61.3672 12.6868 61.4225 12.7585 61.4746 12.8301C61.5267 12.9017 61.5918 12.9538 61.6699 12.9863C61.748 13.0189 61.8262 13.0417 61.9043 13.0547C61.9889 13.0612 62.0736 13.0645 62.1582 13.0645C62.2298 13.0645 62.3014 13.0645 62.373 13.0645C62.4512 13.0579 62.526 13.0547 62.5977 13.0547C62.6953 13.0547 62.7865 13.0645 62.8711 13.084C62.9557 13.1035 63.0306 13.1458 63.0957 13.2109C63.1608 13.276 63.2096 13.3672 63.2422 13.4844C63.2812 13.6016 63.3008 13.7611 63.3008 13.9629C63.3008 14.2754 63.2682 14.6237 63.2031 15.0078C63.138 15.3854 63.0664 15.776 62.9883 16.1797C62.9102 16.5768 62.8158 17.0293 62.7051 17.5371C62.5944 18.0449 62.5391 18.4779 62.5391 18.8359C62.5391 19.1419 62.5651 19.3828 62.6172 19.5586C62.6758 19.7279 62.7962 19.8125 62.9785 19.8125C63.1152 19.8125 63.2585 19.7799 63.4082 19.7148C63.5579 19.6432 63.7077 19.5521 63.8574 19.4414C64.0137 19.3307 64.1667 19.207 64.3164 19.0703C64.4727 18.9271 64.6191 18.7806 64.7559 18.6309C65.0749 18.2793 65.3971 17.8822 65.7227 17.4395L66.1914 19.6074ZM57.8516 18.8359C57.8516 18.9987 57.8613 19.1582 57.8809 19.3145C57.9069 19.4642 57.9492 19.6009 58.0078 19.7246C58.0664 19.8418 58.1445 19.9395 58.2422 20.0176C58.3398 20.0892 58.4635 20.125 58.6133 20.125C58.8542 20.125 59.0723 20.0208 59.2676 19.8125C59.4629 19.6042 59.6322 19.3535 59.7754 19.0605C59.9186 18.7676 60.0326 18.4648 60.1172 18.1523C60.2083 17.8398 60.2669 17.5794 60.293 17.3711L61.0254 14.1777C60.7585 14.1777 60.498 14.2461 60.2441 14.3828C59.9902 14.513 59.7493 14.6921 59.5215 14.9199C59.3001 15.1478 59.0951 15.4082 58.9062 15.7012C58.7174 15.9941 58.5319 16.3555 58.3496 16.7852C58.1673 17.2148 58.0371 17.5924 57.959 17.918C57.8874 18.2435 57.8516 18.5495 57.8516 18.8359ZM68.6133 14.1387C68.9779 13.6829 69.3099 13.3184 69.6094 13.0449C69.9154 12.765 70.2181 12.625 70.5176 12.625C70.9017 12.625 71.2435 12.7096 71.543 12.8789C71.8424 13.0482 72.0964 13.2728 72.3047 13.5527C72.513 13.8327 72.6725 14.1549 72.7832 14.5195C72.8939 14.8841 72.9492 15.265 72.9492 15.6621C72.9492 15.9941 72.9362 16.3099 72.9102 16.6094C72.8841 16.9023 72.8353 17.1921 72.7637 17.4785C72.6986 17.7585 72.6042 18.0384 72.4805 18.3184C72.3633 18.5983 72.207 18.888 72.0117 19.1875C72.2461 19.0508 72.4837 18.9173 72.7246 18.7871C72.9655 18.6569 73.2064 18.5137 73.4473 18.3574C73.6947 18.2012 73.9421 18.0286 74.1895 17.8398C74.4368 17.6445 74.6908 17.4167 74.9512 17.1562L75.7031 18.7676C75.3451 19.0931 74.987 19.3763 74.6289 19.6172C74.2773 19.8581 73.9128 20.0697 73.5352 20.252C73.1641 20.4277 72.7734 20.5807 72.3633 20.7109C71.9596 20.8411 71.5299 20.9583 71.0742 21.0625C70.9635 21.1732 70.8105 21.2839 70.6152 21.3945C70.4264 21.5052 70.2376 21.6061 70.0488 21.6973C69.834 21.8014 69.6029 21.9023 69.3555 22H69.1113C68.0957 22 67.5456 21.987 67.4609 21.9609C66.6797 21.7461 66.1882 21.5768 65.9863 21.4531C65.6152 21.2122 65.2572 20.9648 64.9121 20.7109C64.9316 20.1836 64.9707 19.5879 65.0293 18.9238C65.0749 18.3444 65.1432 17.638 65.2344 16.8047C65.3646 15.5742 65.4883 14.6725 65.6055 14.0996C65.6641 13.4551 65.7422 12.7422 65.8398 11.9609C65.918 11.362 66.0417 10.6165 66.2109 9.72461C66.3867 8.82617 66.6048 7.99935 66.8652 7.24414C67.1322 6.48242 67.4251 5.80534 67.7441 5.21289C68.0697 4.62044 68.4212 4.14518 68.7988 3.78711C69.1829 3.42904 69.5964 3.25 70.0391 3.25C70.5339 3.25 70.931 3.33464 71.2305 3.50391C71.5299 3.67318 71.7611 3.9043 71.9238 4.19727C72.0866 4.48372 72.194 4.82227 72.2461 5.21289C72.2982 5.60352 72.3242 6.02018 72.3242 6.46289C72.3242 7.08138 72.207 7.7194 71.9727 8.37695C71.7448 9.03451 71.4453 9.69206 71.0742 10.3496C70.7031 11.0007 70.2865 11.6387 69.8242 12.2637C69.3685 12.8887 68.9128 13.4779 68.457 14.0312L68.6133 14.1387ZM69.4922 14.8516C69.2643 14.8516 69.0365 14.9004 68.8086 14.998C68.5807 15.0892 68.3691 15.2357 68.1738 15.4375C67.9785 15.6328 67.806 15.8867 67.6562 16.1992C67.3633 16.8047 67.2526 17.1758 67.3242 17.3125C67.3242 17.3255 67.2754 17.7161 67.1777 18.4844C67.1387 18.7773 67.1061 19.0378 67.0801 19.2656C67.054 19.526 67.0312 19.7702 67.0117 19.998C67.2266 20.0632 67.4414 20.1185 67.6562 20.1641C67.8451 20.2031 68.0436 20.2064 68.252 20.1738C68.4603 20.1413 68.6589 20.125 68.8477 20.125C69.069 20.125 69.2708 20.0599 69.4531 19.9297C69.6354 19.7995 69.7982 19.627 69.9414 19.4121C70.0846 19.1908 70.2083 18.9401 70.3125 18.6602C70.4167 18.3802 70.5013 18.0905 70.5664 17.791C70.6315 17.485 70.6803 17.1855 70.7129 16.8926C70.7454 16.5931 70.7617 16.3197 70.7617 16.0723C70.7617 15.9095 70.7422 15.7565 70.7031 15.6133C70.6706 15.4635 70.6055 15.3333 70.5078 15.2227C70.4167 15.112 70.2865 15.0241 70.1172 14.959C69.9544 14.8874 69.7461 14.8516 69.4922 14.8516ZM70.4492 5.90625C70.4492 5.88021 70.4427 5.82487 70.4297 5.74023C70.4232 5.6556 70.4004 5.56771 70.3613 5.47656C70.3288 5.38542 70.2799 5.30404 70.2148 5.23242C70.1497 5.16081 70.0618 5.125 69.9512 5.125C69.821 5.125 69.6842 5.2194 69.541 5.4082C69.4043 5.59049 69.2676 5.84115 69.1309 6.16016C68.9941 6.47266 68.8607 6.83724 68.7305 7.25391C68.6003 7.66406 68.4733 8.09701 68.3496 8.55273C68.2259 9.00195 68.1087 9.46094 67.998 9.92969C67.8939 10.3984 67.7962 10.8444 67.7051 11.2676C67.6204 11.6842 67.5456 12.0684 67.4805 12.4199C67.4154 12.765 67.3633 13.0449 67.3242 13.2598C67.5 12.9212 67.6953 12.5697 67.9102 12.2051C68.1315 11.8405 68.3529 11.4629 68.5742 11.0723C68.7956 10.6751 69.0104 10.2715 69.2188 9.86133C69.4336 9.44466 69.6257 9.02148 69.7949 8.5918C69.9707 8.1556 70.1139 7.71615 70.2246 7.27344C70.3418 6.82422 70.4167 6.36849 70.4492 5.90625ZM80.918 14.4707C81.1068 14.8483 81.2467 15.2487 81.3379 15.6719C81.4355 16.0885 81.4844 16.5605 81.4844 17.0879C81.4844 17.472 81.4421 17.8594 81.3574 18.25C81.2728 18.6406 81.1491 19.0182 80.9863 19.3828C80.8301 19.7474 80.6348 20.0892 80.4004 20.4082C80.1725 20.7272 79.9089 21.0039 79.6094 21.2383C79.3164 21.4727 78.9941 21.6582 78.6426 21.7949C78.291 21.9316 77.9167 22 77.5195 22C76.9466 22 76.4551 21.8763 76.0449 21.6289C75.6413 21.375 75.3092 21.0462 75.0488 20.6426C74.7884 20.2389 74.5964 19.7832 74.4727 19.2754C74.3555 18.7676 74.2969 18.2533 74.2969 17.7324C74.2969 16.873 74.4043 16.1341 74.6191 15.5156C74.834 14.8906 75.14 14.3503 75.5371 13.8945C75.9408 13.4323 76.4323 13.071 77.0117 12.8105C77.5911 12.5436 78.2422 12.4102 78.9648 12.4102C79.5833 12.4102 80.1628 12.5078 80.7031 12.7031C81.2435 12.8919 81.748 13.1491 82.2168 13.4746C82.6921 13.7936 83.1315 14.1973 83.5352 14.6855C83.9453 15.1738 84.3262 15.6393 84.6777 16.082L84.4922 17.459C84.3164 17.2246 84.0788 16.9707 83.7793 16.6973C83.4798 16.4238 83.1608 16.1211 82.8223 15.7891C82.4902 15.457 82.1615 15.1771 81.8359 14.9492C81.5104 14.7148 81.2305 14.5195 80.9961 14.3633L80.918 14.4707ZM77.9004 20.125C78.1217 20.125 78.3366 20.0143 78.5449 19.793C78.7533 19.5651 78.9355 19.2819 79.0918 18.9434C79.248 18.5983 79.3717 18.1849 79.4629 17.7031C79.5605 17.2148 79.6094 16.7819 79.6094 16.4043C79.6094 16.1048 79.5866 15.8281 79.541 15.5742C79.4954 15.3138 79.4271 15.0892 79.3359 14.9004C79.2448 14.7116 79.1276 14.5618 78.9844 14.4512C78.8411 14.3405 78.6686 14.2852 78.4668 14.2852C78.1999 14.2852 77.946 14.3991 77.7051 14.627C77.4642 14.8548 77.2526 15.1478 77.0703 15.5059C76.888 15.8574 76.7448 16.248 76.6406 16.6777C76.5365 17.1074 76.4844 17.5924 76.4844 18.1328C76.4844 18.4062 76.5104 18.6634 76.5625 18.9043C76.6146 19.1452 76.696 19.3568 76.8066 19.5391C76.9173 19.7148 77.0638 19.8581 77.2461 19.9688C77.4284 20.0729 77.6465 20.125 77.9004 20.125ZM89.3359 14.4707C89.5247 14.8483 89.6647 15.2487 89.7559 15.6719C89.8535 16.0885 89.9023 16.5605 89.9023 17.0879C89.9023 17.472 89.86 17.8594 89.7754 18.25C89.6908 18.6406 89.5671 19.0182 89.4043 19.3828C89.248 19.7474 89.0527 20.0892 88.8184 20.4082C88.5905 20.7272 88.3268 21.0039 88.0273 21.2383C87.7344 21.4727 87.4121 21.6582 87.0605 21.7949C86.709 21.9316 86.3346 22 85.9375 22C85.3646 22 84.873 21.8763 84.4629 21.6289C84.0592 21.375 83.7272 21.0462 83.4668 20.6426C83.2064 20.2389 83.0143 19.7832 82.8906 19.2754C82.7734 18.7676 82.7148 18.2533 82.7148 17.7324C82.7148 16.873 82.8223 16.1341 83.0371 15.5156C83.252 14.8906 83.5579 14.3503 83.9551 13.8945C84.3587 13.4323 84.8503 13.071 85.4297 12.8105C86.0091 12.5436 86.6602 12.4102 87.3828 12.4102C88.0013 12.4102 88.5807 12.5078 89.1211 12.7031C89.6615 12.8919 90.166 13.1491 90.6348 13.4746C91.11 13.7936 91.5495 14.1973 91.9531 14.6855C92.3633 15.1738 92.7441 15.6393 93.0957 16.082L92.9102 17.459C92.7344 17.2246 92.4967 16.9707 92.1973 16.6973C91.8978 16.4238 91.5788 16.1211 91.2402 15.7891C90.9082 15.457 90.5794 15.1771 90.2539 14.9492C89.9284 14.7148 89.6484 14.5195 89.4141 14.3633L89.3359 14.4707ZM86.3184 20.125C86.5397 20.125 86.7546 20.0143 86.9629 19.793C87.1712 19.5651 87.3535 19.2819 87.5098 18.9434C87.666 18.5983 87.7897 18.1849 87.8809 17.7031C87.9785 17.2148 88.0273 16.7819 88.0273 16.4043C88.0273 16.1048 88.0046 15.8281 87.959 15.5742C87.9134 15.3138 87.8451 15.0892 87.7539 14.9004C87.6628 14.7116 87.5456 14.5618 87.4023 14.4512C87.2591 14.3405 87.0866 14.2852 86.8848 14.2852C86.6178 14.2852 86.3639 14.3991 86.123 14.627C85.8822 14.8548 85.6706 15.1478 85.4883 15.5059C85.306 15.8574 85.1628 16.248 85.0586 16.6777C84.9544 17.1074 84.9023 17.5924 84.9023 18.1328C84.9023 18.4062 84.9284 18.6634 84.9805 18.9043C85.0326 19.1452 85.1139 19.3568 85.2246 19.5391C85.3353 19.7148 85.4818 19.8581 85.6641 19.9688C85.8464 20.0729 86.0645 20.125 86.3184 20.125ZM95.8203 20.1738C95.8203 20.0892 95.8268 19.9688 95.8398 19.8125C95.8529 19.6562 95.8724 19.4772 95.8984 19.2754C95.9245 19.0736 95.9538 18.862 95.9863 18.6406C96.0189 18.4128 96.0514 18.1882 96.084 17.9668C96.1556 17.446 96.2435 16.8861 96.3477 16.2871H96.2012C96.123 16.3848 96.0319 16.5312 95.9277 16.7266C95.8301 16.9219 95.6901 17.2083 95.5078 17.5859C95.3255 17.9635 95.0911 18.4551 94.8047 19.0605C94.5247 19.6595 94.1602 20.4115 93.7109 21.3164C93.5807 21.5833 93.4277 21.7656 93.252 21.8633C93.0827 21.9544 92.8939 22 92.6855 22C92.4186 22 92.2038 21.9447 92.041 21.834C91.8783 21.7168 91.7513 21.5638 91.6602 21.375C91.5755 21.1797 91.5169 20.9616 91.4844 20.7207C91.4583 20.4733 91.4453 20.2194 91.4453 19.959C91.4453 19.6921 91.4616 19.3763 91.4941 19.0117C91.5267 18.6471 91.569 18.263 91.6211 17.8594C91.6732 17.4557 91.748 16.9967 91.8457 16.4824C91.9499 15.9616 92.0378 15.5091 92.1094 15.125C92.1875 14.7409 92.2656 14.3893 92.3438 14.0703C92.4219 13.7513 92.4935 13.4909 92.5586 13.2891C92.6237 13.0807 92.6855 12.9147 92.7441 12.791C92.8027 12.6673 92.8678 12.5729 92.9395 12.5078C93.0176 12.4362 93.1087 12.3906 93.2129 12.3711C93.3171 12.3451 93.4505 12.332 93.6133 12.332C93.8607 12.332 94.0527 12.3418 94.1895 12.3613C94.3327 12.3743 94.4368 12.4134 94.502 12.4785C94.5736 12.5371 94.6159 12.625 94.6289 12.7422C94.6419 12.8594 94.6484 13.0189 94.6484 13.2207C94.6484 13.3314 94.6419 13.4583 94.6289 13.6016C94.6224 13.7448 94.6094 13.8978 94.5898 14.0605C94.5768 14.2233 94.5573 14.3893 94.5312 14.5586C94.4857 14.8841 94.4596 15.0534 94.4531 15.0664C94.362 15.5091 94.2676 16.0039 94.1699 16.5508L94.2773 16.668C94.2904 16.6484 94.375 16.4759 94.5312 16.1504C94.694 15.8249 94.8665 15.5026 95.0488 15.1836C95.2376 14.8646 95.4395 14.5326 95.6543 14.1875C95.8691 13.8359 96.0742 13.5267 96.2695 13.2598C96.4583 12.9928 96.6569 12.7715 96.8652 12.5957C97.0801 12.4199 97.334 12.332 97.627 12.332C97.9004 12.332 98.1348 12.4134 98.3301 12.5762C98.5254 12.7324 98.623 12.957 98.623 13.25C98.623 13.5039 98.6068 13.7448 98.5742 13.9727C98.5352 14.2656 98.4961 14.487 98.457 14.6367C98.4115 14.806 98.3594 15.0143 98.3008 15.2617C98.2552 15.4766 98.1738 15.7858 98.0566 16.1895C98.0371 16.2546 98.0176 16.349 97.998 16.4727C97.9915 16.5117 97.9883 16.5378 97.9883 16.5508L98.0957 16.668C98.1087 16.6484 98.1999 16.4792 98.3691 16.1602C98.5384 15.8346 98.7207 15.5124 98.916 15.1934C99.1178 14.8743 99.3294 14.5391 99.5508 14.1875C99.7786 13.8359 99.9902 13.5267 100.186 13.2598C100.374 12.9993 100.563 12.7812 100.752 12.6055C100.941 12.4232 101.172 12.332 101.445 12.332C101.751 12.332 102.008 12.4134 102.217 12.5762C102.432 12.7324 102.539 12.957 102.539 13.25C102.539 13.6992 102.516 14.1257 102.471 14.5293C102.425 14.9329 102.357 15.3789 102.266 15.8672C102.174 16.3555 102.106 16.8014 102.061 17.2051C102.015 17.6022 101.992 18.0254 101.992 18.4746C101.992 18.8262 102.038 19.1126 102.129 19.334C102.22 19.5553 102.331 19.666 102.461 19.666C102.598 19.666 102.741 19.6367 102.891 19.5781C103.04 19.5195 103.193 19.4447 103.35 19.3535C103.506 19.2624 103.659 19.1582 103.809 19.041C103.958 18.9173 104.102 18.7904 104.238 18.6602C104.557 18.3607 104.873 18.0221 105.186 17.6445L105.352 19.9492C105.065 20.1771 104.779 20.4147 104.492 20.6621C104.212 20.903 103.913 21.1243 103.594 21.3262C103.281 21.5215 102.936 21.6842 102.559 21.8145C102.181 21.9382 101.755 22 101.279 22C101.045 22 100.846 21.9251 100.684 21.7754C100.527 21.6191 100.4 21.4043 100.303 21.1309C100.205 20.8574 100.133 20.5352 100.088 20.1641C100.049 19.793 100.029 19.3893 100.029 18.9531C100.029 18.543 100.042 18.11 100.068 17.6543C100.101 17.1921 100.143 16.7266 100.195 16.2578H100.049L98.0664 21.3066C97.8971 21.5801 97.7083 21.7656 97.5 21.8633C97.2917 21.9544 97.0508 22 96.7773 22C96.569 22 96.403 21.9447 96.2793 21.834C96.1556 21.7168 96.0579 21.5703 95.9863 21.3945C95.9212 21.2122 95.8757 21.0137 95.8496 20.7988C95.8301 20.584 95.8203 20.3757 95.8203 20.1738Z" fill="white"/>
</svg>
