<svg width="14" height="12" viewBox="0 0 14 12" fill="none" xmlns="http://www.w3.org/2000/svg">
<path d="M13.5898 6.21484L8.99609 10.8086C8.79557 11.0091 8.55859 11.0547 8.28516 10.9453C8.01172 10.8359 7.875 10.6354 7.875 10.3438V7.71875H4.15625C3.97396 7.71875 3.81901 7.65495 3.69141 7.52734C3.5638 7.39974 3.5 7.24479 3.5 7.0625V4.4375C3.5 4.25521 3.5638 4.10026 3.69141 3.97266C3.81901 3.84505 3.97396 3.78125 4.15625 3.78125H7.875V1.15625C7.875 0.864583 8.01172 0.664062 8.28516 0.554688C8.55859 0.445312 8.79557 0.490885 8.99609 0.691406L13.5898 5.28516C13.7174 5.41276 13.7812 5.56771 13.7812 5.75C13.7812 5.93229 13.7174 6.08724 13.5898 6.21484ZM5.25 10.6719C5.25 10.8906 5.14062 11 4.92188 11H2.625C1.89583 11 1.27604 10.7448 0.765625 10.2344C0.255208 9.72396 0 9.10417 0 8.375V3.125C0 2.39583 0.255208 1.77604 0.765625 1.26562C1.27604 0.755208 1.89583 0.5 2.625 0.5H4.92188C5.14062 0.5 5.25 0.609375 5.25 0.828125V1.92188C5.25 2.14062 5.14062 2.25 4.92188 2.25H2.625C2.38802 2.25 2.17839 2.34115 1.99609 2.52344C1.83203 2.6875 1.75 2.88802 1.75 3.125V8.375C1.75 8.61198 1.83203 8.82161 1.99609 9.00391C2.17839 9.16797 2.38802 9.25 2.625 9.25H4.92188C5.14062 9.25 5.25 9.35938 5.25 9.57812V10.6719Z" fill="#0A0A0A"/>
</svg>
