<svg width="36" height="36" viewBox="0 0 36 36" fill="none" xmlns="http://www.w3.org/2000/svg">
<path fill-rule="evenodd" clip-rule="evenodd" d="M18 36C27.9411 36 36 27.9411 36 18C36 8.05887 27.9411 0 18 0C8.05887 0 0 8.05887 0 18C0 27.9411 8.05887 36 18 36Z" fill="#BB05C8"/>
<path d="M25 13.5C25 12.675 24.325 12 23.5 12H11.5C10.675 12 10 12.675 10 13.5V22.5C10 23.325 10.675 24 11.5 24H23.5C24.325 24 25 23.325 25 22.5V13.5ZM23.5 13.5L17.5 17.25L11.5 13.5H23.5ZM23.5 22.5H11.5V15L17.5 18.75L23.5 15V22.5Z" fill="white"/>
</svg>
