<svg width="18" height="15" viewBox="0 0 18 15" fill="none" xmlns="http://www.w3.org/2000/svg">
<path d="M16.6797 10.9492L17.3906 11.3594C17.4818 11.4141 17.5182 11.4961 17.5 11.6055C17.3177 12.1888 17.0078 12.7083 16.5703 13.1641C16.4974 13.237 16.4154 13.2552 16.3242 13.2188L15.6406 12.8086C15.3307 13.0638 14.9935 13.2552 14.6289 13.3828V14.2031C14.6289 14.3125 14.5742 14.3763 14.4648 14.3945C13.8633 14.5221 13.2617 14.5221 12.6602 14.3945C12.5508 14.3763 12.4961 14.3125 12.4961 14.2031V13.3828C12.1315 13.2552 11.7943 13.0638 11.4844 12.8086L10.7734 13.2188C10.6823 13.2552 10.6003 13.237 10.5273 13.1641C10.1081 12.7083 9.80729 12.1888 9.625 11.6055C9.58854 11.4961 9.625 11.4141 9.73438 11.3594L10.418 10.9492C10.3451 10.5664 10.3451 10.1836 10.418 9.80078L9.73438 9.39062C9.64323 9.33594 9.60677 9.25391 9.625 9.14453C9.80729 8.5612 10.1081 8.04167 10.5273 7.58594C10.6003 7.51302 10.6823 7.49479 10.7734 7.53125L11.4844 7.94141C11.7943 7.6862 12.1315 7.49479 12.4961 7.36719V6.54688C12.4961 6.4375 12.5508 6.3737 12.6602 6.35547C13.2617 6.22786 13.8633 6.22786 14.4648 6.35547C14.5742 6.3737 14.6289 6.4375 14.6289 6.54688V7.36719C14.9935 7.49479 15.3307 7.6862 15.6406 7.94141L16.3242 7.53125C16.4154 7.49479 16.4974 7.51302 16.5703 7.58594C17.0078 8.04167 17.3177 8.5612 17.5 9.14453C17.5182 9.25391 17.4818 9.33594 17.3906 9.39062L16.6797 9.80078C16.7526 10.1836 16.7526 10.5664 16.6797 10.9492ZM12.6328 11.3047C12.888 11.5599 13.1979 11.6875 13.5625 11.6875C13.9271 11.6875 14.237 11.5599 14.4922 11.3047C14.7474 11.0495 14.875 10.7396 14.875 10.375C14.875 10.0104 14.7474 9.70052 14.4922 9.44531C14.237 9.1901 13.9271 9.0625 13.5625 9.0625C13.1979 9.0625 12.888 9.1901 12.6328 9.44531C12.3776 9.70052 12.25 10.0104 12.25 10.375C12.25 10.7396 12.3776 11.0495 12.6328 11.3047ZM8.58594 6.73828C7.91146 7.41276 7.09115 7.75 6.125 7.75C5.15885 7.75 4.32943 7.41276 3.63672 6.73828C2.96224 6.04557 2.625 5.21615 2.625 4.25C2.625 3.28385 2.96224 2.46354 3.63672 1.78906C4.32943 1.09635 5.15885 0.75 6.125 0.75C7.09115 0.75 7.91146 1.09635 8.58594 1.78906C9.27865 2.46354 9.625 3.28385 9.625 4.25C9.625 5.21615 9.27865 6.04557 8.58594 6.73828ZM11.6211 13.9297V14.2031C11.6211 14.2943 11.6393 14.4036 11.6758 14.5312C11.457 14.6771 11.2109 14.75 10.9375 14.75H1.3125C0.947917 14.75 0.638021 14.6224 0.382812 14.3672C0.127604 14.112 0 13.8021 0 13.4375V12.2891C0 11.2865 0.355469 10.4297 1.06641 9.71875C1.79557 8.98958 2.66146 8.625 3.66406 8.625H4.12891C4.76693 8.91667 5.43229 9.0625 6.125 9.0625C6.81771 9.0625 7.48307 8.91667 8.12109 8.625H8.58594C8.6224 8.625 8.67708 8.63411 8.75 8.65234C8.82292 8.65234 8.86849 8.65234 8.88672 8.65234C8.88672 8.67057 8.86849 8.70703 8.83203 8.76172C8.8138 8.81641 8.80469 8.86198 8.80469 8.89844C8.73177 9.13542 8.74089 9.3724 8.83203 9.60938C8.92318 9.84635 9.07812 10.0286 9.29688 10.1562L9.51562 10.2656C9.4974 10.3385 9.4974 10.4115 9.51562 10.4844L9.29688 10.6211C9.07812 10.7487 8.92318 10.931 8.83203 11.168C8.74089 11.3867 8.73177 11.6146 8.80469 11.8516C9.02344 12.5625 9.38802 13.2005 9.89844 13.7656C10.1172 13.9844 10.3815 14.0938 10.6914 14.0938C10.8737 14.0938 11.0469 14.0482 11.2109 13.957L11.4297 13.8477C11.5208 13.9023 11.5846 13.9297 11.6211 13.9297Z" fill="#070707"/>
</svg>
