<svg width="14" height="15" viewBox="0 0 14 15" fill="none" xmlns="http://www.w3.org/2000/svg">
<path d="M14 5.5625C14 6.89323 13.526 8.03255 12.5781 8.98047C11.6484 9.91016 10.5182 10.375 9.1875 10.375C8.8776 10.375 8.57682 10.3477 8.28516 10.293L7.62891 11.0312C7.5013 11.1771 7.33724 11.25 7.13672 11.25H6.125V12.3438C6.125 12.526 6.0612 12.681 5.93359 12.8086C5.80599 12.9362 5.65104 13 5.46875 13H4.375V14.0938C4.375 14.276 4.3112 14.431 4.18359 14.5586C4.05599 14.6862 3.90104 14.75 3.71875 14.75H0.65625C0.473958 14.75 0.31901 14.6862 0.191406 14.5586C0.0638021 14.431 0 14.276 0 14.0938V11.9609C0 11.7786 0.0638021 11.6237 0.191406 11.4961L4.62109 7.06641C4.45703 6.57422 4.375 6.07292 4.375 5.5625C4.375 4.6875 4.58464 3.88542 5.00391 3.15625C5.44141 2.40885 6.02474 1.82552 6.75391 1.40625C7.5013 0.96875 8.3125 0.75 9.1875 0.75C10.5182 0.75 11.6484 1.22396 12.5781 2.17188C13.526 3.10156 14 4.23177 14 5.5625ZM9.57031 3.32031C9.3151 3.57552 9.1875 3.88542 9.1875 4.25C9.1875 4.61458 9.3151 4.92448 9.57031 5.17969C9.82552 5.4349 10.1354 5.5625 10.5 5.5625C10.8646 5.5625 11.1745 5.4349 11.4297 5.17969C11.6849 4.92448 11.8125 4.61458 11.8125 4.25C11.8125 3.88542 11.6849 3.57552 11.4297 3.32031C11.1745 3.0651 10.8646 2.9375 10.5 2.9375C10.1354 2.9375 9.82552 3.0651 9.57031 3.32031Z" fill="black"/>
</svg>
