<svg width="36" height="36" viewBox="0 0 36 36" fill="none" xmlns="http://www.w3.org/2000/svg">
<path fill-rule="evenodd" clip-rule="evenodd" d="M18 36C27.9411 36 36 27.9411 36 18C36 8.05887 27.9411 0 18 0C8.05887 0 0 8.05887 0 18C0 27.9411 8.05887 36 18 36Z" fill="#0284FD"/>
<path d="M23.168 18.707L24.3164 19.3906C24.3893 19.4271 24.4349 19.4818 24.4531 19.5547C24.4896 19.6276 24.4987 19.7005 24.4805 19.7734C24.1706 20.7396 23.6693 21.5964 22.9766 22.3438C22.9219 22.3984 22.8581 22.4349 22.7852 22.4531C22.7122 22.4714 22.6393 22.4622 22.5664 22.4258L21.418 21.7422C20.9258 22.1615 20.3698 22.4805 19.75 22.6992V24.0391C19.75 24.112 19.7227 24.1758 19.668 24.2305C19.6315 24.3034 19.5768 24.349 19.5039 24.3672C18.5013 24.5859 17.4987 24.5859 16.4961 24.3672C16.4232 24.349 16.3594 24.3034 16.3047 24.2305C16.2682 24.1758 16.25 24.112 16.25 24.0391V22.6992C15.6302 22.4805 15.0742 22.1615 14.582 21.7422L13.4336 22.4258C13.3607 22.4622 13.2878 22.4714 13.2148 22.4531C13.1419 22.4349 13.0781 22.3984 13.0234 22.3438C12.3307 21.5964 11.8294 20.7396 11.5195 19.7734C11.5013 19.7005 11.5013 19.6276 11.5195 19.5547C11.556 19.4818 11.6107 19.4271 11.6836 19.3906L12.832 18.707C12.7227 18.069 12.7227 17.431 12.832 16.793L11.6836 16.1094C11.6107 16.0729 11.556 16.0182 11.5195 15.9453C11.5013 15.8724 11.5013 15.7995 11.5195 15.7266C11.8294 14.7604 12.3307 13.9036 13.0234 13.1562C13.0781 13.1016 13.1419 13.0651 13.2148 13.0469C13.2878 13.0286 13.3607 13.0378 13.4336 13.0742L14.582 13.7578C15.0742 13.3385 15.6302 13.0195 16.25 12.8008V11.4609C16.25 11.388 16.2682 11.3242 16.3047 11.2695C16.3594 11.1966 16.4232 11.151 16.4961 11.1328C17.4987 10.9141 18.5013 10.9141 19.5039 11.1328C19.5768 11.151 19.6315 11.1966 19.668 11.2695C19.7227 11.3242 19.75 11.388 19.75 11.4609V12.8008C20.3698 13.0195 20.9258 13.3385 21.418 13.7578L22.5664 13.0742C22.6393 13.0378 22.7122 13.0286 22.7852 13.0469C22.8581 13.0651 22.9219 13.1016 22.9766 13.1562C23.6693 13.9036 24.1706 14.7604 24.4805 15.7266C24.4987 15.7995 24.4896 15.8724 24.4531 15.9453C24.4349 16.0182 24.3893 16.0729 24.3164 16.1094L23.168 16.793C23.2773 17.431 23.2773 18.069 23.168 18.707ZM20.1875 17.75C20.1875 17.1484 19.9688 16.638 19.5312 16.2188C19.112 15.7812 18.6016 15.5625 18 15.5625C17.3984 15.5625 16.8789 15.7812 16.4414 16.2188C16.0221 16.638 15.8125 17.1484 15.8125 17.75C15.8125 18.3516 16.0221 18.8711 16.4414 19.3086C16.8789 19.7279 17.3984 19.9375 18 19.9375C18.6016 19.9375 19.112 19.7279 19.5312 19.3086C19.9688 18.8711 20.1875 18.3516 20.1875 17.75Z" fill="white"/>
</svg>
