<svg width="15" height="15" viewBox="0 0 15 15" fill="none" xmlns="http://www.w3.org/2000/svg">
<circle cx="7.5" cy="7.5" r="7.25" stroke="white" stroke-width="0.5"/>
<path d="M5.624 10V9.36L7.56 7.336C7.74667 7.144 7.89067 6.97067 7.992 6.816C8.09867 6.66133 8.17333 6.512 8.216 6.368C8.25867 6.224 8.28 6.07733 8.28 5.928C8.28 5.64 8.18667 5.41867 8 5.264C7.81333 5.10933 7.55467 5.032 7.224 5.032C6.968 5.032 6.712 5.08267 6.456 5.184C6.20533 5.28 5.96533 5.43467 5.736 5.648L5.424 4.976C5.65867 4.75733 5.94133 4.58933 6.272 4.472C6.608 4.34933 6.952 4.288 7.304 4.288C7.688 4.288 8.016 4.352 8.288 4.48C8.56 4.60267 8.768 4.784 8.912 5.024C9.06133 5.25867 9.136 5.54133 9.136 5.872C9.136 6.03733 9.11467 6.2 9.072 6.36C9.03467 6.51467 8.976 6.672 8.896 6.832C8.816 6.98667 8.71467 7.144 8.592 7.304C8.46933 7.464 8.32267 7.63467 8.152 7.816L6.72 9.304V9.256H9.36V10H5.624Z" fill="white"/>
</svg>
