<svg width="14" height="15" viewBox="0 0 14 15" fill="none" xmlns="http://www.w3.org/2000/svg">
<path d="M10.1445 4.38672C9.2513 3.56641 8.20312 3.15625 7 3.15625C5.94271 3.15625 4.99479 3.48438 4.15625 4.14062C3.33594 4.77865 2.79818 5.60807 2.54297 6.62891C2.50651 6.79297 2.39714 6.875 2.21484 6.875H0.65625C0.546875 6.875 0.455729 6.83854 0.382812 6.76562C0.328125 6.67448 0.309896 6.58333 0.328125 6.49219C0.638021 4.90625 1.41276 3.59375 2.65234 2.55469C3.91016 1.4974 5.35938 0.96875 7 0.96875C8.80469 0.96875 10.3633 1.59766 11.6758 2.85547L12.6602 1.87109C12.8607 1.67057 13.0977 1.625 13.3711 1.73438C13.6445 1.84375 13.7812 2.04427 13.7812 2.33594V6C13.7812 6.18229 13.7174 6.33724 13.5898 6.46484C13.4622 6.59245 13.3073 6.65625 13.125 6.65625H9.46094C9.16927 6.65625 8.96875 6.51953 8.85938 6.24609C8.75 5.97266 8.79557 5.73568 8.99609 5.53516L10.1445 4.38672ZM0.875 8.84375H4.53906C4.83073 8.84375 5.03125 8.98047 5.14062 9.25391C5.25 9.52734 5.20443 9.76432 5.00391 9.96484L3.85547 11.1133C4.7487 11.9336 5.79688 12.3438 7 12.3438C7.69271 12.3438 8.34896 12.1979 8.96875 11.9062C9.58854 11.5964 10.1172 11.1862 10.5547 10.6758C10.9922 10.1471 11.293 9.54557 11.457 8.87109C11.4935 8.70703 11.6029 8.625 11.7852 8.625H13.3438C13.4531 8.625 13.5352 8.67057 13.5898 8.76172C13.6628 8.83464 13.6901 8.91667 13.6719 9.00781C13.362 10.5938 12.5781 11.9154 11.3203 12.9727C10.0807 14.0117 8.64062 14.5312 7 14.5312C5.19531 14.5312 3.63672 13.9023 2.32422 12.6445L1.33984 13.6289C1.13932 13.8294 0.902344 13.875 0.628906 13.7656C0.355469 13.6562 0.21875 13.4557 0.21875 13.1641V9.5C0.21875 9.31771 0.282552 9.16276 0.410156 9.03516C0.53776 8.90755 0.692708 8.84375 0.875 8.84375Z" fill="#0D0D0D"/>
</svg>
