<svg width="18" height="19" viewBox="0 0 18 19" fill="none" xmlns="http://www.w3.org/2000/svg">
<path d="M7.71745 3.44508L1.36495 14.0501C1.23398 14.2769 1.16468 14.5341 1.16395 14.796C1.16321 15.0579 1.23107 15.3154 1.36077 15.543C1.49048 15.7705 1.6775 15.9601 1.90324 16.093C2.12897 16.2258 2.38555 16.2972 2.64745 16.3001H15.3525C15.6144 16.2972 15.8709 16.2258 16.0967 16.093C16.3224 15.9601 16.5094 15.7705 16.6391 15.543C16.7688 15.3154 16.8367 15.0579 16.836 14.796C16.8352 14.5341 16.7659 14.2769 16.635 14.0501L10.2825 3.44508C10.1488 3.22466 9.9605 3.04242 9.73585 2.91594C9.51121 2.78947 9.25776 2.72302 8.99995 2.72302C8.74215 2.72302 8.4887 2.78947 8.26406 2.91594C8.03941 3.04242 7.85116 3.22466 7.71745 3.44508Z" stroke="#F7B84B" stroke-width="1.5" stroke-linecap="round" stroke-linejoin="round"/>
<path d="M9 7.30005V10.3" stroke="#F7B84B" stroke-width="1.5" stroke-linecap="round" stroke-linejoin="round"/>
<path d="M9 13.3H9.0075" stroke="#F7B84B" stroke-width="1.5" stroke-linecap="round" stroke-linejoin="round"/>
</svg>
